<svg xmlns="http://www.w3.org/2000/svg" width="1200" height="680" viewBox="0 0 1200 680" role="img" aria-labelledby="title desc">
<title id="title">Recommended Module 4 equity and drawdown</title>
<desc id="desc">Business-day equity rises from one million rupees to 1108983; maximum daily-close drawdown is -0.76 percent.</desc>
<rect width="1200" height="680" fill="#fbfaf7"/>
<text x="60" y="42" font-family="Arial,sans-serif" font-size="24" font-weight="500" fill="#20242a">Recommended profile: equity and underwater curve</text>
<text x="60" y="67" font-family="Arial,sans-serif" font-size="14" fill="#606770">₹10 lakh initial capital · fixed 60-minute exits · executed trades only</text>
<line x1="95" y1="90" x2="95" y2="370" stroke="#c7cbd1"/><line x1="95" y1="370" x2="1105" y2="370" stroke="#c7cbd1"/>
<polyline points="95.00,350.93 95.75,350.93 96.51,350.93 97.26,350.93 98.02,350.93 98.77,350.93 99.53,350.93 100.28,350.93 101.03,350.93 101.79,350.93 102.54,350.93 103.30,350.93 104.05,350.93 104.81,350.93 105.56,350.93 106.31,350.93 107.07,370.00 107.82,370.00 108.58,370.00 109.33,370.00 110.09,370.00 110.84,370.00 111.59,370.00 112.35,370.00 113.10,370.00 113.86,370.00 114.61,370.00 115.37,370.00 116.12,370.00 116.87,370.00 117.63,370.00 118.38,370.00 119.14,370.00 119.89,370.00 120.65,370.00 121.40,370.00 122.15,370.00 122.91,370.00 123.66,370.00 124.42,370.00 125.17,370.00 125.93,353.52 126.68,353.52 127.43,353.52 128.19,353.52 128.94,353.52 129.70,353.14 130.45,353.14 131.21,353.14 131.96,353.14 132.71,353.14 133.47,353.14 134.22,353.14 134.98,353.14 135.73,353.14 136.49,353.14 137.24,347.18 137.99,347.18 138.75,347.18 139.50,347.18 140.26,347.18 141.01,347.18 141.77,347.18 142.52,347.18 143.27,347.18 144.03,347.18 144.78,334.50 145.54,334.50 146.29,334.50 147.05,334.50 147.80,334.50 148.55,334.50 149.31,334.50 150.06,334.50 150.82,334.50 151.57,334.50 152.33,334.50 153.08,334.50 153.83,334.50 154.59,334.50 155.34,334.50 156.10,336.67 156.85,336.67 157.61,336.67 158.36,336.67 159.12,336.67 159.87,336.67 160.62,336.67 161.38,336.67 162.13,336.67 162.89,336.67 163.64,336.67 164.40,336.67 165.15,336.67 165.90,336.67 166.66,336.67 167.41,336.67 168.17,336.67 168.92,336.67 169.68,336.67 170.43,336.67 171.18,324.96 171.94,324.96 172.69,324.96 173.45,324.96 174.20,324.96 174.96,324.96 175.71,324.96 176.46,324.96 177.22,324.96 177.97,324.96 178.73,332.96 179.48,332.96 180.24,332.96 180.99,332.96 181.74,332.96 182.50,324.80 183.25,324.80 184.01,324.80 184.76,324.80 185.52,324.80 186.27,324.80 187.02,324.80 187.78,324.80 188.53,324.80 189.29,309.48 190.04,309.48 190.80,309.48 191.55,309.48 192.30,309.48 193.06,309.48 193.81,309.48 194.57,309.48 195.32,309.48 196.08,309.48 196.83,309.48 197.58,305.94 198.34,305.94 199.09,305.94 199.85,305.94 200.60,305.94 201.36,305.94 202.11,305.94 202.86,305.94 203.62,305.94 204.37,305.94 205.13,305.94 205.88,305.94 206.64,305.94 207.39,305.94 208.14,305.94 208.90,305.94 209.65,305.94 210.41,305.94 211.16,305.94 211.92,305.94 212.67,305.94 213.42,305.94 214.18,305.94 214.93,305.94 215.69,305.94 216.44,319.54 217.20,319.54 217.95,319.54 218.70,319.54 219.46,319.54 220.21,313.47 220.97,313.47 221.72,313.47 222.48,313.47 223.23,313.47 223.98,313.47 224.74,313.47 225.49,313.47 226.25,313.47 227.00,313.47 227.76,303.69 228.51,303.69 229.26,303.69 230.02,303.69 230.77,303.69 231.53,303.69 232.28,303.69 233.04,303.69 233.79,303.69 234.54,303.69 235.30,303.69 236.05,303.69 236.81,303.69 237.56,303.69 238.32,303.69 239.07,303.69 239.82,303.69 240.58,303.69 241.33,303.69 242.09,303.69 242.84,295.58 243.60,295.58 244.35,295.58 245.10,295.58 245.86,295.58 246.61,295.58 247.37,295.58 248.12,295.58 248.88,295.58 249.63,295.58 250.38,295.58 251.14,295.58 251.89,295.58 252.65,295.58 253.40,295.58 254.16,295.58 254.91,295.58 255.66,295.58 256.42,295.58 257.17,295.58 257.93,295.58 258.68,295.58 259.44,295.58 260.19,295.58 260.94,295.58 261.70,295.58 262.45,295.58 263.21,295.58 263.96,295.58 264.72,295.58 265.47,295.58 266.22,295.58 266.98,295.58 267.73,295.58 268.49,295.58 269.24,295.58 270.00,295.58 270.75,295.58 271.50,295.58 272.26,295.58 273.01,295.58 273.77,295.58 274.52,295.58 275.28,295.58 276.03,301.17 276.78,301.17 277.54,301.17 278.29,301.17 279.05,301.17 279.80,301.17 280.56,301.17 281.31,301.17 282.06,301.17 282.82,301.17 283.57,301.17 284.33,308.95 285.08,308.95 285.84,308.95 286.59,308.95 287.35,308.95 288.10,308.95 288.85,308.95 289.61,308.95 290.36,308.95 291.12,308.95 291.87,308.95 292.63,308.95 293.38,308.95 294.13,308.95 294.89,308.95 295.64,308.95 296.40,308.95 297.15,308.95 297.91,308.95 298.66,308.95 299.41,286.15 300.17,286.15 300.92,289.24 301.68,289.24 302.43,289.24 303.19,289.24 303.94,289.24 304.69,289.24 305.45,289.24 306.20,289.24 306.96,289.24 307.71,289.24 308.47,289.24 309.22,289.24 309.97,289.24 310.73,297.35 311.48,297.35 312.24,297.35 312.99,297.35 313.75,297.35 314.50,297.35 315.25,297.35 316.01,297.35 316.76,297.35 317.52,297.35 318.27,297.35 319.03,297.35 319.78,297.35 320.53,297.35 321.29,297.35 322.04,297.35 322.80,297.35 323.55,297.35 324.31,297.35 325.06,297.35 325.81,297.35 326.57,297.35 327.32,297.35 328.08,297.35 328.83,297.35 329.59,297.35 330.34,297.35 331.09,297.35 331.85,297.35 332.60,297.35 333.36,292.51 334.11,292.51 334.87,292.51 335.62,292.51 336.37,292.51 337.13,292.51 337.88,292.51 338.64,292.51 339.39,292.51 340.15,295.56 340.90,295.56 341.65,295.56 342.41,295.56 343.16,295.56 343.92,295.56 344.67,295.56 345.43,295.56 346.18,295.56 346.93,295.56 347.69,295.56 348.44,295.56 349.20,295.56 349.95,295.56 350.71,295.56 351.46,295.56 352.21,295.56 352.97,295.56 353.72,295.56 354.48,295.56 355.23,295.56 355.99,295.56 356.74,295.56 357.49,295.56 358.25,295.56 359.00,295.56 359.76,295.56 360.51,295.56 361.27,295.56 362.02,295.56 362.77,295.56 363.53,295.56 364.28,295.56 365.04,295.56 365.79,295.56 366.55,295.56 367.30,295.56 368.05,295.56 368.81,295.56 369.56,295.56 370.32,295.56 371.07,294.79 371.83,294.79 372.58,294.79 373.33,294.79 374.09,294.79 374.84,294.79 375.60,294.79 376.35,294.79 377.11,294.79 377.86,294.79 378.61,294.79 379.37,294.79 380.12,294.79 380.88,294.79 381.63,294.79 382.39,294.79 383.14,294.79 383.89,294.79 384.65,294.79 385.40,297.08 386.16,287.01 386.91,287.01 387.67,287.01 388.42,287.01 389.17,287.01 389.93,275.94 390.68,275.94 391.44,275.94 392.19,275.94 392.95,275.94 393.70,265.47 394.45,265.47 395.21,265.47 395.96,265.47 396.72,265.47 397.47,265.47 398.23,265.47 398.98,265.47 399.73,265.47 400.49,265.47 401.24,265.47 402.00,265.47 402.75,265.47 403.51,265.47 404.26,265.47 405.01,261.64 405.77,261.64 406.52,261.64 407.28,261.64 408.03,261.64 408.79,253.78 409.54,253.78 410.29,253.78 411.05,253.78 411.80,253.78 412.56,246.14 413.31,246.14 414.07,246.14 414.82,246.14 415.58,246.14 416.33,246.14 417.08,246.14 417.84,246.14 418.59,246.14 419.35,246.14 420.10,246.14 420.86,246.14 421.61,246.14 422.36,246.14 423.12,246.14 423.87,246.14 424.63,246.14 425.38,246.14 426.14,246.14 426.89,246.14 427.64,240.94 428.40,240.94 429.15,240.94 429.91,240.94 430.66,240.94 431.42,240.94 432.17,240.94 432.92,240.94 433.68,240.94 434.43,240.94 435.19,240.94 435.94,240.94 436.70,240.94 437.45,240.94 438.20,240.94 438.96,240.94 439.71,240.94 440.47,240.94 441.22,240.94 441.98,240.94 442.73,240.94 443.48,240.94 444.24,240.94 444.99,240.94 445.75,240.94 446.50,240.94 447.26,240.94 448.01,240.94 448.76,240.94 449.52,240.94 450.27,240.94 451.03,240.94 451.78,240.94 452.54,240.94 453.29,240.94 454.04,240.94 454.80,240.94 455.55,240.94 456.31,240.94 457.06,240.94 457.82,240.94 458.57,240.94 459.32,240.94 460.08,240.94 460.83,240.94 461.59,240.94 462.34,240.94 463.10,240.94 463.85,240.94 464.60,240.94 465.36,240.94 466.11,240.94 466.87,240.94 467.62,240.94 468.38,240.94 469.13,240.94 469.88,240.94 470.64,240.94 471.39,240.94 472.15,240.94 472.90,240.94 473.66,240.94 474.41,240.94 475.16,240.94 475.92,240.94 476.67,230.89 477.43,230.89 478.18,230.89 478.94,230.89 479.69,230.89 480.44,230.89 481.20,230.89 481.95,230.89 482.71,230.89 483.46,230.89 484.22,230.89 484.97,230.89 485.72,230.89 486.48,230.89 487.23,230.89 487.99,224.33 488.74,224.33 489.50,224.33 490.25,224.33 491.00,224.33 491.76,224.33 492.51,224.33 493.27,224.33 494.02,224.33 494.78,224.33 495.53,244.21 496.28,244.21 497.04,244.21 497.79,244.21 498.55,244.21 499.30,240.30 500.06,240.30 500.81,240.30 501.56,240.30 502.32,240.30 503.07,233.41 503.83,233.41 504.58,233.41 505.34,233.41 506.09,233.41 506.84,226.60 507.60,226.60 508.35,226.60 509.11,226.60 509.86,226.60 510.62,219.79 511.37,219.79 512.12,219.79 512.88,219.79 513.63,219.79 514.39,219.79 515.14,219.79 515.90,219.79 516.65,219.79 517.40,219.79 518.16,219.79 518.91,219.79 519.67,219.79 520.42,219.79 521.18,219.79 521.93,218.21 522.68,218.21 523.44,218.21 524.19,218.21 524.95,218.21 525.70,218.21 526.46,218.21 527.21,218.21 527.96,218.21 528.72,218.21 529.47,217.01 530.23,217.01 530.98,217.01 531.74,217.01 532.49,217.01 533.24,217.01 534.00,217.01 534.75,217.01 535.51,217.01 536.26,217.01 537.02,214.06 537.77,214.06 538.53,214.06 539.28,214.06 540.03,214.06 540.79,214.06 541.54,214.06 542.30,214.06 543.05,214.06 543.81,214.06 544.56,214.06 545.31,214.06 546.07,214.06 546.82,214.06 547.58,214.06 548.33,214.06 549.09,214.06 549.84,214.06 550.59,214.06 551.35,214.06 552.10,214.06 552.86,214.06 553.61,214.06 554.37,214.06 555.12,214.06 555.87,214.06 556.63,214.06 557.38,214.06 558.14,214.06 558.89,214.06 559.65,214.06 560.40,214.06 561.15,214.06 561.91,214.06 562.66,214.06 563.42,214.06 564.17,214.06 564.93,214.06 565.68,214.06 566.43,214.06 567.19,214.06 567.94,214.06 568.70,214.06 569.45,214.06 570.21,214.06 570.96,214.06 571.71,214.06 572.47,214.06 573.22,214.06 573.98,214.06 574.73,214.06 575.49,214.06 576.24,214.06 576.99,214.06 577.75,214.06 578.50,214.06 579.26,214.06 580.01,214.06 580.77,214.06 581.52,214.06 582.27,214.06 583.03,214.06 583.78,214.06 584.54,214.06 585.29,214.06 586.05,214.06 586.80,214.06 587.55,214.06 588.31,214.06 589.06,214.06 589.82,214.06 590.57,214.06 591.33,214.06 592.08,214.06 592.83,214.06 593.59,214.06 594.34,214.06 595.10,214.06 595.85,214.06 596.61,214.06 597.36,214.06 598.11,214.06 598.87,214.06 599.62,214.06 600.38,214.06 601.13,214.06 601.89,214.06 602.64,214.06 603.39,214.06 604.15,214.06 604.90,214.06 605.66,214.06 606.41,214.06 607.17,214.06 607.92,214.06 608.67,201.46 609.43,201.46 610.18,201.46 610.94,201.46 611.69,201.46 612.45,187.42 613.20,187.42 613.95,187.42 614.71,187.42 615.46,187.42 616.22,187.42 616.97,187.42 617.73,187.42 618.48,187.42 619.23,187.42 619.99,192.61 620.74,192.61 621.50,192.61 622.25,192.61 623.01,192.61 623.76,192.61 624.51,192.61 625.27,192.61 626.02,192.61 626.78,192.61 627.53,192.61 628.29,192.61 629.04,192.61 629.79,192.61 630.55,192.61 631.30,192.61 632.06,192.61 632.81,192.61 633.57,192.61 634.32,192.61 635.07,192.61 635.83,192.61 636.58,192.61 637.34,192.61 638.09,192.61 638.85,186.92 639.60,186.92 640.35,186.92 641.11,186.92 641.86,186.92 642.62,186.92 643.37,186.92 644.13,186.92 644.88,186.92 645.63,186.92 646.39,186.92 647.14,186.92 647.90,186.92 648.65,186.92 649.41,186.92 650.16,168.78 650.91,168.78 651.67,168.78 652.42,168.78 653.18,168.78 653.93,168.78 654.69,168.78 655.44,168.78 656.19,168.78 656.95,168.78 657.70,168.78 658.46,168.78 659.21,168.78 659.97,168.78 660.72,168.78 661.47,168.78 662.23,168.78 662.98,168.78 663.74,168.78 664.49,168.78 665.25,168.78 666.00,168.78 666.76,168.78 667.51,168.78 668.26,153.41 669.02,153.41 669.77,153.41 670.53,153.41 671.28,153.41 672.04,153.41 672.79,153.41 673.54,153.41 674.30,153.41 675.05,153.41 675.81,153.41 676.56,153.41 677.32,153.41 678.07,153.41 678.82,153.41 679.58,153.41 680.33,153.41 681.09,153.41 681.84,153.41 682.60,153.41 683.35,153.41 684.10,153.41 684.86,153.41 685.61,153.41 686.37,153.41 687.12,153.41 687.88,163.61 688.63,163.61 689.38,163.61 690.14,163.61 690.89,163.61 691.65,163.61 692.40,163.61 693.16,163.61 693.91,163.61 694.66,163.61 695.42,163.61 696.17,163.61 696.93,163.61 697.68,163.61 698.44,163.61 699.19,163.61 699.94,163.61 700.70,167.67 701.45,167.67 702.21,167.67 702.96,167.67 703.72,167.67 704.47,167.67 705.22,167.67 705.98,167.67 706.73,154.97 707.49,154.97 708.24,154.97 709.00,154.97 709.75,154.97 710.50,154.97 711.26,154.97 712.01,154.97 712.77,154.97 713.52,154.97 714.28,154.97 715.03,154.97 715.78,154.97 716.54,154.97 717.29,154.97 718.05,154.97 718.80,154.97 719.56,154.97 720.31,154.97 721.06,154.97 721.82,154.97 722.57,154.97 723.33,154.97 724.08,154.97 724.84,154.97 725.59,154.97 726.34,154.97 727.10,154.97 727.85,154.97 728.61,154.97 729.36,145.25 730.12,145.25 730.87,145.25 731.62,145.25 732.38,145.25 733.13,145.25 733.89,145.25 734.64,145.25 735.40,145.25 736.15,145.25 736.90,145.25 737.66,145.25 738.41,145.25 739.17,145.25 739.92,145.25 740.68,145.25 741.43,145.25 742.18,145.25 742.94,145.25 743.69,145.25 744.45,145.25 745.20,145.25 745.96,145.25 746.71,145.25 747.46,145.25 748.22,145.25 748.97,145.25 749.73,145.25 750.48,145.25 751.24,145.25 751.99,145.25 752.74,145.25 753.50,145.25 754.25,145.25 755.01,145.25 755.76,145.25 756.52,145.25 757.27,145.25 758.02,145.25 758.78,145.25 759.53,145.25 760.29,145.25 761.04,145.25 761.80,145.25 762.55,145.25 763.30,145.25 764.06,145.25 764.81,145.25 765.57,145.25 766.32,145.25 767.08,145.25 767.83,145.25 768.58,145.25 769.34,145.25 770.09,145.25 770.85,145.25 771.60,145.25 772.36,145.25 773.11,145.25 773.86,145.25 774.62,145.25 775.37,145.25 776.13,145.25 776.88,145.25 777.64,145.25 778.39,145.25 779.14,145.25 779.90,145.25 780.65,147.57 781.41,147.57 782.16,147.57 782.92,147.57 783.67,147.57 784.42,147.57 785.18,147.57 785.93,147.57 786.69,147.57 787.44,147.57 788.20,147.57 788.95,147.57 789.71,147.57 790.46,147.57 791.21,147.57 791.97,147.57 792.72,147.57 793.48,147.57 794.23,147.57 794.99,147.57 795.74,147.57 796.49,147.57 797.25,147.57 798.00,147.57 798.76,149.20 799.51,149.20 800.27,149.20 801.02,149.80 801.77,149.80 802.53,149.80 803.28,149.80 804.04,149.80 804.79,149.80 805.55,149.80 806.30,149.80 807.05,149.80 807.81,149.80 808.56,149.80 809.32,149.80 810.07,149.80 810.83,149.80 811.58,152.63 812.33,152.63 813.09,152.63 813.84,152.63 814.60,152.63 815.35,152.63 816.11,152.63 816.86,152.63 817.61,152.63 818.37,152.63 819.12,152.63 819.88,152.63 820.63,152.63 821.39,152.63 822.14,152.63 822.89,152.63 823.65,152.63 824.40,152.63 825.16,152.63 825.91,152.63 826.67,152.63 827.42,152.63 828.17,152.63 828.93,152.63 829.68,152.63 830.44,152.63 831.19,152.63 831.95,152.63 832.70,152.63 833.45,152.63 834.21,152.63 834.96,163.20 835.72,163.20 836.47,163.20 837.23,163.20 837.98,163.20 838.73,154.77 839.49,154.77 840.24,154.77 841.00,154.77 841.75,154.77 842.51,154.77 843.26,154.77 844.01,154.77 844.77,154.77 845.52,154.77 846.28,147.09 847.03,147.09 847.79,147.09 848.54,147.09 849.29,147.09 850.05,147.09 850.80,147.09 851.56,147.09 852.31,147.09 853.07,147.09 853.82,147.09 854.57,147.09 855.33,147.09 856.08,147.09 856.84,147.09 857.59,147.09 858.35,147.09 859.10,147.09 859.85,147.09 860.61,147.09 861.36,147.09 862.12,147.09 862.87,147.09 863.63,147.09 864.38,147.09 865.13,147.09 865.89,147.09 866.64,147.09 867.40,147.09 868.15,147.09 868.91,147.09 869.66,147.09 870.41,147.09 871.17,147.09 871.92,147.09 872.68,147.09 873.43,147.09 874.19,147.09 874.94,147.09 875.69,147.09 876.45,147.09 877.20,147.09 877.96,147.09 878.71,147.09 879.47,147.09 880.22,116.13 880.97,116.13 881.73,120.98 882.48,120.98 883.24,120.98 883.99,120.98 884.75,120.98 885.50,122.61 886.25,122.61 887.01,122.61 887.76,116.73 888.52,116.73 889.27,116.73 890.03,116.73 890.78,116.73 891.53,116.73 892.29,116.73 893.04,116.73 893.80,116.73 894.55,116.73 895.31,116.36 896.06,116.36 896.81,116.36 897.57,116.36 898.32,116.36 899.08,115.41 899.83,115.41 900.59,115.41 901.34,115.41 902.09,115.41 902.85,115.41 903.60,115.41 904.36,115.41 905.11,115.41 905.87,115.41 906.62,115.41 907.37,115.41 908.13,115.41 908.88,115.41 909.64,115.41 910.39,114.70 911.15,114.70 911.90,114.70 912.65,114.70 913.41,114.70 914.16,123.39 914.92,123.39 915.67,123.39 916.43,123.39 917.18,123.39 917.94,123.39 918.69,123.39 919.44,123.39 920.20,123.39 920.95,123.39 921.71,123.39 922.46,123.39 923.22,123.39 923.97,123.39 924.72,123.39 925.48,124.12 926.23,124.12 926.99,124.12 927.74,124.12 928.50,124.12 929.25,118.44 930.00,118.44 930.76,118.44 931.51,118.44 932.27,118.44 933.02,118.44 933.78,118.44 934.53,118.44 935.28,118.44 936.04,118.44 936.79,118.44 937.55,118.44 938.30,118.44 939.06,118.44 939.81,118.44 940.56,124.96 941.32,124.96 942.07,124.96 942.83,102.23 943.58,102.23 944.34,102.23 945.09,102.23 945.84,102.23 946.60,97.14 947.35,97.14 948.11,97.14 948.86,97.14 949.62,97.14 950.37,110.48 951.12,110.48 951.88,110.48 952.63,110.48 953.39,110.48 954.14,109.02 954.90,109.02 955.65,109.02 956.40,109.02 957.16,109.02 957.91,109.02 958.67,109.02 959.42,109.02 960.18,109.02 960.93,109.02 961.68,109.02 962.44,109.02 963.19,109.02 963.95,109.02 964.70,109.02 965.46,109.02 966.21,109.02 966.96,109.02 967.72,109.02 968.47,109.01 969.23,109.01 969.98,109.01 970.74,109.01 971.49,109.01 972.24,109.01 973.00,109.01 973.75,109.01 974.51,109.01 975.26,109.01 976.02,109.01 976.77,109.01 977.52,109.01 978.28,109.01 979.03,109.01 979.79,109.01 980.54,109.01 981.30,109.01 982.05,109.01 982.80,109.01 983.56,109.01 984.31,109.01 985.07,109.01 985.82,109.01 986.58,109.01 987.33,109.01 988.08,103.83 988.84,103.83 989.59,103.83 990.35,103.83 991.10,103.83 991.86,99.66 992.61,99.66 993.36,99.66 994.12,99.66 994.87,99.66 995.63,104.62 996.38,104.62 997.14,104.62 997.89,104.62 998.64,104.62 999.40,104.62 1000.15,104.62 1000.91,104.62 1001.66,104.62 1002.42,104.62 1003.17,104.62 1003.92,104.62 1004.68,104.62 1005.43,104.62 1006.19,104.62 1006.94,104.62 1007.70,104.62 1008.45,104.62 1009.20,104.62 1009.96,104.62 1010.71,104.62 1011.47,104.62 1012.22,104.62 1012.98,104.62 1013.73,104.62 1014.48,104.62 1015.24,104.62 1015.99,104.62 1016.75,104.62 1017.50,104.62 1018.26,96.25 1019.01,96.25 1019.76,96.25 1020.52,96.25 1021.27,96.25 1022.03,96.25 1022.78,96.25 1023.54,96.25 1024.29,96.25 1025.04,96.25 1025.80,96.25 1026.55,96.25 1027.31,96.25 1028.06,96.25 1028.82,96.25 1029.57,90.00 1030.32,90.00 1031.08,90.00 1031.83,90.00 1032.59,90.00 1033.34,90.00 1034.10,90.00 1034.85,90.00 1035.60,90.00 1036.36,90.00 1037.11,90.00 1037.87,90.00 1038.62,90.00 1039.38,90.00 1040.13,90.00 1040.88,90.00 1041.64,90.00 1042.39,90.00 1043.15,94.49 1043.90,94.49 1044.66,94.49 1045.41,94.49 1046.17,94.49 1046.92,94.49 1047.67,94.49 1048.43,94.49 1049.18,94.49 1049.94,94.49 1050.69,94.49 1051.45,94.49 1052.20,94.49 1052.95,94.49 1053.71,94.49 1054.46,94.49 1055.22,94.49 1055.97,94.49 1056.73,94.49 1057.48,94.49 1058.23,94.49 1058.99,94.49 1059.74,94.49 1060.50,94.49 1061.25,94.49 1062.01,94.49 1062.76,94.49 1063.51,94.49 1064.27,94.49 1065.02,94.49 1065.78,94.49 1066.53,94.49 1067.29,94.49 1068.04,94.49 1068.79,94.49 1069.55,94.49 1070.30,94.80 1071.06,94.80 1071.81,94.80 1072.57,94.80 1073.32,94.80 1074.07,94.80 1074.83,95.76 1075.58,95.76 1076.34,95.76 1077.09,95.76 1077.85,95.76 1078.60,95.76 1079.35,95.76 1080.11,95.76 1080.86,95.76 1081.62,95.76 1082.37,95.76 1083.13,95.76 1083.88,95.76 1084.63,95.76 1085.39,95.76 1086.14,95.76 1086.90,95.76 1087.65,95.76 1088.41,95.76 1089.16,95.76 1089.91,95.76 1090.67,95.76 1091.42,95.76 1092.18,95.76 1092.93,95.76 1093.69,95.76 1094.44,95.76 1095.19,95.76 1095.95,95.76 1096.70,95.76 1097.46,94.29 1098.21,94.29 1098.97,94.29 1099.72,94.29 1100.47,94.10 1101.23,94.10 1101.98,94.10 1102.74,94.10 1103.49,94.10 1104.25,94.10 1105.00,92.45" fill="none" stroke="#126a62" stroke-width="3"/>
<text x="22" y="100" font-family="Arial,sans-serif" font-size="13" fill="#606770">₹11.10L</text>
<text x="22" y="370" font-family="Arial,sans-serif" font-size="13" fill="#606770">₹9.97L</text>
<text x="985" y="112" font-family="Arial,sans-serif" font-size="15" font-weight="500" fill="#20242a">End ₹1,108,983</text>
<line x1="95" y1="455" x2="95" y2="605" stroke="#c7cbd1"/><line x1="95" y1="455" x2="1105" y2="455" stroke="#c7cbd1"/>
<polyline points="95.00,455.00 95.75,455.00 96.51,455.00 97.26,455.00 98.02,455.00 98.77,455.00 99.53,455.00 100.28,455.00 101.03,455.00 101.79,455.00 102.54,455.00 103.30,455.00 104.05,455.00 104.81,455.00 105.56,455.00 106.31,455.00 107.07,605.00 107.82,605.00 108.58,605.00 109.33,605.00 110.09,605.00 110.84,605.00 111.59,605.00 112.35,605.00 113.10,605.00 113.86,605.00 114.61,605.00 115.37,605.00 116.12,605.00 116.87,605.00 117.63,605.00 118.38,605.00 119.14,605.00 119.89,605.00 120.65,605.00 121.40,605.00 122.15,605.00 122.91,605.00 123.66,605.00 124.42,605.00 125.17,605.00 125.93,475.38 126.68,475.38 127.43,475.38 128.19,475.38 128.94,475.38 129.70,472.35 130.45,472.35 131.21,472.35 131.96,472.35 132.71,472.35 133.47,472.35 134.22,472.35 134.98,472.35 135.73,472.35 136.49,472.35 137.24,455.00 137.99,455.00 138.75,455.00 139.50,455.00 140.26,455.00 141.01,455.00 141.77,455.00 142.52,455.00 143.27,455.00 144.03,455.00 144.78,455.00 145.54,455.00 146.29,455.00 147.05,455.00 147.80,455.00 148.55,455.00 149.31,455.00 150.06,455.00 150.82,455.00 151.57,455.00 152.33,455.00 153.08,455.00 153.83,455.00 154.59,455.00 155.34,455.00 156.10,471.97 156.85,471.97 157.61,471.97 158.36,471.97 159.12,471.97 159.87,471.97 160.62,471.97 161.38,471.97 162.13,471.97 162.89,471.97 163.64,471.97 164.40,471.97 165.15,471.97 165.90,471.97 166.66,471.97 167.41,471.97 168.17,471.97 168.92,471.97 169.68,471.97 170.43,471.97 171.18,455.00 171.94,455.00 172.69,455.00 173.45,455.00 174.20,455.00 174.96,455.00 175.71,455.00 176.46,455.00 177.22,455.00 177.97,455.00 178.73,517.22 179.48,517.22 180.24,517.22 180.99,517.22 181.74,517.22 182.50,455.00 183.25,455.00 184.01,455.00 184.76,455.00 185.52,455.00 186.27,455.00 187.02,455.00 187.78,455.00 188.53,455.00 189.29,455.00 190.04,455.00 190.80,455.00 191.55,455.00 192.30,455.00 193.06,455.00 193.81,455.00 194.57,455.00 195.32,455.00 196.08,455.00 196.83,455.00 197.58,455.00 198.34,455.00 199.09,455.00 199.85,455.00 200.60,455.00 201.36,455.00 202.11,455.00 202.86,455.00 203.62,455.00 204.37,455.00 205.13,455.00 205.88,455.00 206.64,455.00 207.39,455.00 208.14,455.00 208.90,455.00 209.65,455.00 210.41,455.00 211.16,455.00 211.92,455.00 212.67,455.00 213.42,455.00 214.18,455.00 214.93,455.00 215.69,455.00 216.44,560.11 217.20,560.11 217.95,560.11 218.70,560.11 219.46,560.11 220.21,513.21 220.97,513.21 221.72,513.21 222.48,513.21 223.23,513.21 223.98,513.21 224.74,513.21 225.49,513.21 226.25,513.21 227.00,513.21 227.76,455.00 228.51,455.00 229.26,455.00 230.02,455.00 230.77,455.00 231.53,455.00 232.28,455.00 233.04,455.00 233.79,455.00 234.54,455.00 235.30,455.00 236.05,455.00 236.81,455.00 237.56,455.00 238.32,455.00 239.07,455.00 239.82,455.00 240.58,455.00 241.33,455.00 242.09,455.00 242.84,455.00 243.60,455.00 244.35,455.00 245.10,455.00 245.86,455.00 246.61,455.00 247.37,455.00 248.12,455.00 248.88,455.00 249.63,455.00 250.38,455.00 251.14,455.00 251.89,455.00 252.65,455.00 253.40,455.00 254.16,455.00 254.91,455.00 255.66,455.00 256.42,455.00 257.17,455.00 257.93,455.00 258.68,455.00 259.44,455.00 260.19,455.00 260.94,455.00 261.70,455.00 262.45,455.00 263.21,455.00 263.96,455.00 264.72,455.00 265.47,455.00 266.22,455.00 266.98,455.00 267.73,455.00 268.49,455.00 269.24,455.00 270.00,455.00 270.75,455.00 271.50,455.00 272.26,455.00 273.01,455.00 273.77,455.00 274.52,455.00 275.28,455.00 276.03,498.02 276.78,498.02 277.54,498.02 278.29,498.02 279.05,498.02 279.80,498.02 280.56,498.02 281.31,498.02 282.06,498.02 282.82,498.02 283.57,498.02 284.33,557.91 285.08,557.91 285.84,557.91 286.59,557.91 287.35,557.91 288.10,557.91 288.85,557.91 289.61,557.91 290.36,557.91 291.12,557.91 291.87,557.91 292.63,557.91 293.38,557.91 294.13,557.91 294.89,557.91 295.64,557.91 296.40,557.91 297.15,557.91 297.91,557.91 298.66,557.91 299.41,455.00 300.17,455.00 300.92,478.64 301.68,478.64 302.43,478.64 303.19,478.64 303.94,478.64 304.69,478.64 305.45,478.64 306.20,478.64 306.96,478.64 307.71,478.64 308.47,478.64 309.22,478.64 309.97,478.64 310.73,540.84 311.48,540.84 312.24,540.84 312.99,540.84 313.75,540.84 314.50,540.84 315.25,540.84 316.01,540.84 316.76,540.84 317.52,540.84 318.27,540.84 319.03,540.84 319.78,540.84 320.53,540.84 321.29,540.84 322.04,540.84 322.80,540.84 323.55,540.84 324.31,540.84 325.06,540.84 325.81,540.84 326.57,540.84 327.32,540.84 328.08,540.84 328.83,540.84 329.59,540.84 330.34,540.84 331.09,540.84 331.85,540.84 332.60,540.84 333.36,503.75 334.11,503.75 334.87,503.75 335.62,503.75 336.37,503.75 337.13,503.75 337.88,503.75 338.64,503.75 339.39,503.75 340.15,527.13 340.90,527.13 341.65,527.13 342.41,527.13 343.16,527.13 343.92,527.13 344.67,527.13 345.43,527.13 346.18,527.13 346.93,527.13 347.69,527.13 348.44,527.13 349.20,527.13 349.95,527.13 350.71,527.13 351.46,527.13 352.21,527.13 352.97,527.13 353.72,527.13 354.48,527.13 355.23,527.13 355.99,527.13 356.74,527.13 357.49,527.13 358.25,527.13 359.00,527.13 359.76,527.13 360.51,527.13 361.27,527.13 362.02,527.13 362.77,527.13 363.53,527.13 364.28,527.13 365.04,527.13 365.79,527.13 366.55,527.13 367.30,527.13 368.05,527.13 368.81,527.13 369.56,527.13 370.32,527.13 371.07,521.24 371.83,521.24 372.58,521.24 373.33,521.24 374.09,521.24 374.84,521.24 375.60,521.24 376.35,521.24 377.11,521.24 377.86,521.24 378.61,521.24 379.37,521.24 380.12,521.24 380.88,521.24 381.63,521.24 382.39,521.24 383.14,521.24 383.89,521.24 384.65,521.24 385.40,538.82 386.16,461.57 386.91,461.57 387.67,461.57 388.42,461.57 389.17,461.57 389.93,455.00 390.68,455.00 391.44,455.00 392.19,455.00 392.95,455.00 393.70,455.00 394.45,455.00 395.21,455.00 395.96,455.00 396.72,455.00 397.47,455.00 398.23,455.00 398.98,455.00 399.73,455.00 400.49,455.00 401.24,455.00 402.00,455.00 402.75,455.00 403.51,455.00 404.26,455.00 405.01,455.00 405.77,455.00 406.52,455.00 407.28,455.00 408.03,455.00 408.79,455.00 409.54,455.00 410.29,455.00 411.05,455.00 411.80,455.00 412.56,455.00 413.31,455.00 414.07,455.00 414.82,455.00 415.58,455.00 416.33,455.00 417.08,455.00 417.84,455.00 418.59,455.00 419.35,455.00 420.10,455.00 420.86,455.00 421.61,455.00 422.36,455.00 423.12,455.00 423.87,455.00 424.63,455.00 425.38,455.00 426.14,455.00 426.89,455.00 427.64,455.00 428.40,455.00 429.15,455.00 429.91,455.00 430.66,455.00 431.42,455.00 432.17,455.00 432.92,455.00 433.68,455.00 434.43,455.00 435.19,455.00 435.94,455.00 436.70,455.00 437.45,455.00 438.20,455.00 438.96,455.00 439.71,455.00 440.47,455.00 441.22,455.00 441.98,455.00 442.73,455.00 443.48,455.00 444.24,455.00 444.99,455.00 445.75,455.00 446.50,455.00 447.26,455.00 448.01,455.00 448.76,455.00 449.52,455.00 450.27,455.00 451.03,455.00 451.78,455.00 452.54,455.00 453.29,455.00 454.04,455.00 454.80,455.00 455.55,455.00 456.31,455.00 457.06,455.00 457.82,455.00 458.57,455.00 459.32,455.00 460.08,455.00 460.83,455.00 461.59,455.00 462.34,455.00 463.10,455.00 463.85,455.00 464.60,455.00 465.36,455.00 466.11,455.00 466.87,455.00 467.62,455.00 468.38,455.00 469.13,455.00 469.88,455.00 470.64,455.00 471.39,455.00 472.15,455.00 472.90,455.00 473.66,455.00 474.41,455.00 475.16,455.00 475.92,455.00 476.67,455.00 477.43,455.00 478.18,455.00 478.94,455.00 479.69,455.00 480.44,455.00 481.20,455.00 481.95,455.00 482.71,455.00 483.46,455.00 484.22,455.00 484.97,455.00 485.72,455.00 486.48,455.00 487.23,455.00 487.99,455.00 488.74,455.00 489.50,455.00 490.25,455.00 491.00,455.00 491.76,455.00 492.51,455.00 493.27,455.00 494.02,455.00 494.78,455.00 495.53,603.78 496.28,603.78 497.04,603.78 497.79,603.78 498.55,603.78 499.30,574.50 500.06,574.50 500.81,574.50 501.56,574.50 502.32,574.50 503.07,522.98 503.83,522.98 504.58,522.98 505.34,522.98 506.09,522.98 506.84,471.97 507.60,471.97 508.35,471.97 509.11,471.97 509.86,471.97 510.62,455.00 511.37,455.00 512.12,455.00 512.88,455.00 513.63,455.00 514.39,455.00 515.14,455.00 515.90,455.00 516.65,455.00 517.40,455.00 518.16,455.00 518.91,455.00 519.67,455.00 520.42,455.00 521.18,455.00 521.93,455.00 522.68,455.00 523.44,455.00 524.19,455.00 524.95,455.00 525.70,455.00 526.46,455.00 527.21,455.00 527.96,455.00 528.72,455.00 529.47,455.00 530.23,455.00 530.98,455.00 531.74,455.00 532.49,455.00 533.24,455.00 534.00,455.00 534.75,455.00 535.51,455.00 536.26,455.00 537.02,455.00 537.77,455.00 538.53,455.00 539.28,455.00 540.03,455.00 540.79,455.00 541.54,455.00 542.30,455.00 543.05,455.00 543.81,455.00 544.56,455.00 545.31,455.00 546.07,455.00 546.82,455.00 547.58,455.00 548.33,455.00 549.09,455.00 549.84,455.00 550.59,455.00 551.35,455.00 552.10,455.00 552.86,455.00 553.61,455.00 554.37,455.00 555.12,455.00 555.87,455.00 556.63,455.00 557.38,455.00 558.14,455.00 558.89,455.00 559.65,455.00 560.40,455.00 561.15,455.00 561.91,455.00 562.66,455.00 563.42,455.00 564.17,455.00 564.93,455.00 565.68,455.00 566.43,455.00 567.19,455.00 567.94,455.00 568.70,455.00 569.45,455.00 570.21,455.00 570.96,455.00 571.71,455.00 572.47,455.00 573.22,455.00 573.98,455.00 574.73,455.00 575.49,455.00 576.24,455.00 576.99,455.00 577.75,455.00 578.50,455.00 579.26,455.00 580.01,455.00 580.77,455.00 581.52,455.00 582.27,455.00 583.03,455.00 583.78,455.00 584.54,455.00 585.29,455.00 586.05,455.00 586.80,455.00 587.55,455.00 588.31,455.00 589.06,455.00 589.82,455.00 590.57,455.00 591.33,455.00 592.08,455.00 592.83,455.00 593.59,455.00 594.34,455.00 595.10,455.00 595.85,455.00 596.61,455.00 597.36,455.00 598.11,455.00 598.87,455.00 599.62,455.00 600.38,455.00 601.13,455.00 601.89,455.00 602.64,455.00 603.39,455.00 604.15,455.00 604.90,455.00 605.66,455.00 606.41,455.00 607.17,455.00 607.92,455.00 608.67,455.00 609.43,455.00 610.18,455.00 610.94,455.00 611.69,455.00 612.45,455.00 613.20,455.00 613.95,455.00 614.71,455.00 615.46,455.00 616.22,455.00 616.97,455.00 617.73,455.00 618.48,455.00 619.23,455.00 619.99,493.32 620.74,493.32 621.50,493.32 622.25,493.32 623.01,493.32 623.76,493.32 624.51,493.32 625.27,493.32 626.02,493.32 626.78,493.32 627.53,493.32 628.29,493.32 629.04,493.32 629.79,493.32 630.55,493.32 631.30,493.32 632.06,493.32 632.81,493.32 633.57,493.32 634.32,493.32 635.07,493.32 635.83,493.32 636.58,493.32 637.34,493.32 638.09,493.32 638.85,455.00 639.60,455.00 640.35,455.00 641.11,455.00 641.86,455.00 642.62,455.00 643.37,455.00 644.13,455.00 644.88,455.00 645.63,455.00 646.39,455.00 647.14,455.00 647.90,455.00 648.65,455.00 649.41,455.00 650.16,455.00 650.91,455.00 651.67,455.00 652.42,455.00 653.18,455.00 653.93,455.00 654.69,455.00 655.44,455.00 656.19,455.00 656.95,455.00 657.70,455.00 658.46,455.00 659.21,455.00 659.97,455.00 660.72,455.00 661.47,455.00 662.23,455.00 662.98,455.00 663.74,455.00 664.49,455.00 665.25,455.00 666.00,455.00 666.76,455.00 667.51,455.00 668.26,455.00 669.02,455.00 669.77,455.00 670.53,455.00 671.28,455.00 672.04,455.00 672.79,455.00 673.54,455.00 674.30,455.00 675.05,455.00 675.81,455.00 676.56,455.00 677.32,455.00 678.07,455.00 678.82,455.00 679.58,455.00 680.33,455.00 681.09,455.00 681.84,455.00 682.60,455.00 683.35,455.00 684.10,455.00 684.86,455.00 685.61,455.00 686.37,455.00 687.12,455.00 687.88,529.40 688.63,529.40 689.38,529.40 690.14,529.40 690.89,529.40 691.65,529.40 692.40,529.40 693.16,529.40 693.91,529.40 694.66,529.40 695.42,529.40 696.17,529.40 696.93,529.40 697.68,529.40 698.44,529.40 699.19,529.40 699.94,529.40 700.70,558.99 701.45,558.99 702.21,558.99 702.96,558.99 703.72,558.99 704.47,558.99 705.22,558.99 705.98,558.99 706.73,466.41 707.49,466.41 708.24,466.41 709.00,466.41 709.75,466.41 710.50,466.41 711.26,466.41 712.01,466.41 712.77,466.41 713.52,466.41 714.28,466.41 715.03,466.41 715.78,466.41 716.54,466.41 717.29,466.41 718.05,466.41 718.80,466.41 719.56,466.41 720.31,466.41 721.06,466.41 721.82,466.41 722.57,466.41 723.33,466.41 724.08,466.41 724.84,466.41 725.59,466.41 726.34,466.41 727.10,466.41 727.85,466.41 728.61,466.41 729.36,455.00 730.12,455.00 730.87,455.00 731.62,455.00 732.38,455.00 733.13,455.00 733.89,455.00 734.64,455.00 735.40,455.00 736.15,455.00 736.90,455.00 737.66,455.00 738.41,455.00 739.17,455.00 739.92,455.00 740.68,455.00 741.43,455.00 742.18,455.00 742.94,455.00 743.69,455.00 744.45,455.00 745.20,455.00 745.96,455.00 746.71,455.00 747.46,455.00 748.22,455.00 748.97,455.00 749.73,455.00 750.48,455.00 751.24,455.00 751.99,455.00 752.74,455.00 753.50,455.00 754.25,455.00 755.01,455.00 755.76,455.00 756.52,455.00 757.27,455.00 758.02,455.00 758.78,455.00 759.53,455.00 760.29,455.00 761.04,455.00 761.80,455.00 762.55,455.00 763.30,455.00 764.06,455.00 764.81,455.00 765.57,455.00 766.32,455.00 767.08,455.00 767.83,455.00 768.58,455.00 769.34,455.00 770.09,455.00 770.85,455.00 771.60,455.00 772.36,455.00 773.11,455.00 773.86,455.00 774.62,455.00 775.37,455.00 776.13,455.00 776.88,455.00 777.64,455.00 778.39,455.00 779.14,455.00 779.90,455.00 780.65,471.86 781.41,471.86 782.16,471.86 782.92,471.86 783.67,471.86 784.42,471.86 785.18,471.86 785.93,471.86 786.69,471.86 787.44,471.86 788.20,471.86 788.95,471.86 789.71,471.86 790.46,471.86 791.21,471.86 791.97,471.86 792.72,471.86 793.48,471.86 794.23,471.86 794.99,471.86 795.74,471.86 796.49,471.86 797.25,471.86 798.00,471.86 798.76,483.65 799.51,483.65 800.27,483.65 801.02,488.03 801.77,488.03 802.53,488.03 803.28,488.03 804.04,488.03 804.79,488.03 805.55,488.03 806.30,488.03 807.05,488.03 807.81,488.03 808.56,488.03 809.32,488.03 810.07,488.03 810.83,488.03 811.58,508.59 812.33,508.59 813.09,508.59 813.84,508.59 814.60,508.59 815.35,508.59 816.11,508.59 816.86,508.59 817.61,508.59 818.37,508.59 819.12,508.59 819.88,508.59 820.63,508.59 821.39,508.59 822.14,508.59 822.89,508.59 823.65,508.59 824.40,508.59 825.16,508.59 825.91,508.59 826.67,508.59 827.42,508.59 828.17,508.59 828.93,508.59 829.68,508.59 830.44,508.59 831.19,508.59 831.95,508.59 832.70,508.59 833.45,508.59 834.21,508.59 834.96,585.45 835.72,585.45 836.47,585.45 837.23,585.45 837.98,585.45 838.73,524.17 839.49,524.17 840.24,524.17 841.00,524.17 841.75,524.17 842.51,524.17 843.26,524.17 844.01,524.17 844.77,524.17 845.52,524.17 846.28,468.31 847.03,468.31 847.79,468.31 848.54,468.31 849.29,468.31 850.05,468.31 850.80,468.31 851.56,468.31 852.31,468.31 853.07,468.31 853.82,468.31 854.57,468.31 855.33,468.31 856.08,468.31 856.84,468.31 857.59,468.31 858.35,468.31 859.10,468.31 859.85,468.31 860.61,468.31 861.36,468.31 862.12,468.31 862.87,468.31 863.63,468.31 864.38,468.31 865.13,468.31 865.89,468.31 866.64,468.31 867.40,468.31 868.15,468.31 868.91,468.31 869.66,468.31 870.41,468.31 871.17,468.31 871.92,468.31 872.68,468.31 873.43,468.31 874.19,468.31 874.94,468.31 875.69,468.31 876.45,468.31 877.20,468.31 877.96,468.31 878.71,468.31 879.47,468.31 880.22,455.00 880.97,455.00 881.73,489.86 882.48,489.86 883.24,489.86 883.99,489.86 884.75,489.86 885.50,501.59 886.25,501.59 887.01,501.59 887.76,459.31 888.52,459.31 889.27,459.31 890.03,459.31 890.78,459.31 891.53,459.31 892.29,459.31 893.04,459.31 893.80,459.31 894.55,459.31 895.31,456.66 896.06,456.66 896.81,456.66 897.57,456.66 898.32,456.66 899.08,455.00 899.83,455.00 900.59,455.00 901.34,455.00 902.09,455.00 902.85,455.00 903.60,455.00 904.36,455.00 905.11,455.00 905.87,455.00 906.62,455.00 907.37,455.00 908.13,455.00 908.88,455.00 909.64,455.00 910.39,455.00 911.15,455.00 911.90,455.00 912.65,455.00 913.41,455.00 914.16,517.44 914.92,517.44 915.67,517.44 916.43,517.44 917.18,517.44 917.94,517.44 918.69,517.44 919.44,517.44 920.20,517.44 920.95,517.44 921.71,517.44 922.46,517.44 923.22,517.44 923.97,517.44 924.72,517.44 925.48,522.75 926.23,522.75 926.99,522.75 927.74,522.75 928.50,522.75 929.25,481.87 930.00,481.87 930.76,481.87 931.51,481.87 932.27,481.87 933.02,481.87 933.78,481.87 934.53,481.87 935.28,481.87 936.04,481.87 936.79,481.87 937.55,481.87 938.30,481.87 939.06,481.87 939.81,481.87 940.56,528.76 941.32,528.76 942.07,528.76 942.83,455.00 943.58,455.00 944.34,455.00 945.09,455.00 945.84,455.00 946.60,455.00 947.35,455.00 948.11,455.00 948.86,455.00 949.62,455.00 950.37,550.22 951.12,550.22 951.88,550.22 952.63,550.22 953.39,550.22 954.14,539.83 954.90,539.83 955.65,539.83 956.40,539.83 957.16,539.83 957.91,539.83 958.67,539.83 959.42,539.83 960.18,539.83 960.93,539.83 961.68,539.83 962.44,539.83 963.19,539.83 963.95,539.83 964.70,539.83 965.46,539.83 966.21,539.83 966.96,539.83 967.72,539.83 968.47,539.77 969.23,539.77 969.98,539.77 970.74,539.77 971.49,539.77 972.24,539.77 973.00,539.77 973.75,539.77 974.51,539.77 975.26,539.77 976.02,539.77 976.77,539.77 977.52,539.77 978.28,539.77 979.03,539.77 979.79,539.77 980.54,539.77 981.30,539.77 982.05,539.77 982.80,539.77 983.56,539.77 984.31,539.77 985.07,539.77 985.82,539.77 986.58,539.77 987.33,539.77 988.08,502.74 988.84,502.74 989.59,502.74 990.35,502.74 991.10,502.74 991.86,472.97 992.61,472.97 993.36,472.97 994.12,472.97 994.87,472.97 995.63,508.37 996.38,508.37 997.14,508.37 997.89,508.37 998.64,508.37 999.40,508.37 1000.15,508.37 1000.91,508.37 1001.66,508.37 1002.42,508.37 1003.17,508.37 1003.92,508.37 1004.68,508.37 1005.43,508.37 1006.19,508.37 1006.94,508.37 1007.70,508.37 1008.45,508.37 1009.20,508.37 1009.96,508.37 1010.71,508.37 1011.47,508.37 1012.22,508.37 1012.98,508.37 1013.73,508.37 1014.48,508.37 1015.24,508.37 1015.99,508.37 1016.75,508.37 1017.50,508.37 1018.26,455.00 1019.01,455.00 1019.76,455.00 1020.52,455.00 1021.27,455.00 1022.03,455.00 1022.78,455.00 1023.54,455.00 1024.29,455.00 1025.04,455.00 1025.80,455.00 1026.55,455.00 1027.31,455.00 1028.06,455.00 1028.82,455.00 1029.57,455.00 1030.32,455.00 1031.08,455.00 1031.83,455.00 1032.59,455.00 1033.34,455.00 1034.10,455.00 1034.85,455.00 1035.60,455.00 1036.36,455.00 1037.11,455.00 1037.87,455.00 1038.62,455.00 1039.38,455.00 1040.13,455.00 1040.88,455.00 1041.64,455.00 1042.39,455.00 1043.15,486.99 1043.90,486.99 1044.66,486.99 1045.41,486.99 1046.17,486.99 1046.92,486.99 1047.67,486.99 1048.43,486.99 1049.18,486.99 1049.94,486.99 1050.69,486.99 1051.45,486.99 1052.20,486.99 1052.95,486.99 1053.71,486.99 1054.46,486.99 1055.22,486.99 1055.97,486.99 1056.73,486.99 1057.48,486.99 1058.23,486.99 1058.99,486.99 1059.74,486.99 1060.50,486.99 1061.25,486.99 1062.01,486.99 1062.76,486.99 1063.51,486.99 1064.27,486.99 1065.02,486.99 1065.78,486.99 1066.53,486.99 1067.29,486.99 1068.04,486.99 1068.79,486.99 1069.55,486.99 1070.30,489.20 1071.06,489.20 1071.81,489.20 1072.57,489.20 1073.32,489.20 1074.07,489.20 1074.83,496.04 1075.58,496.04 1076.34,496.04 1077.09,496.04 1077.85,496.04 1078.60,496.04 1079.35,496.04 1080.11,496.04 1080.86,496.04 1081.62,496.04 1082.37,496.04 1083.13,496.04 1083.88,496.04 1084.63,496.04 1085.39,496.04 1086.14,496.04 1086.90,496.04 1087.65,496.04 1088.41,496.04 1089.16,496.04 1089.91,496.04 1090.67,496.04 1091.42,496.04 1092.18,496.04 1092.93,496.04 1093.69,496.04 1094.44,496.04 1095.19,496.04 1095.95,496.04 1096.70,496.04 1097.46,485.58 1098.21,485.58 1098.97,485.58 1099.72,485.58 1100.47,484.23 1101.23,484.23 1101.98,484.23 1102.74,484.23 1103.49,484.23 1104.25,484.23 1105.00,472.45" fill="none" stroke="#b14b4b" stroke-width="2.5"/>
<text x="26" y="464" font-family="Arial,sans-serif" font-size="13" fill="#606770">0%</text>
<text x="17" y="605" font-family="Arial,sans-serif" font-size="13" fill="#606770">-0.76%</text>
<text x="95" y="640" font-family="Arial,sans-serif" font-size="13" fill="#606770">2021-05-12</text>
<text x="1015" y="640" font-family="Arial,sans-serif" font-size="13" fill="#606770">2026-06-30</text>
</svg>
