<svg xmlns="http://www.w3.org/2000/svg" width="900" height="360" viewBox="0 0 900 360">
<rect width="100%" height="100%" fill="white"/><text x="70" y="25" font-family="Arial" font-size="18" font-weight="bold" fill="#0f172a">Capacity: net P&L per lot</text>
<line x1="70" y1="45" x2="70" y2="310" stroke="#64748b"/><line x1="70" y1="310" x2="875" y2="310" stroke="#64748b"/>
<polyline fill="none" stroke="#059669" stroke-width="2.5" points="70.0,310.0 78.1,160.1 86.3,110.9 94.4,87.0 102.5,73.1 110.7,64.3 118.8,58.4 126.9,54.2 135.1,51.2 143.2,49.1 151.3,47.6 159.4,46.5 167.6,45.8 175.7,45.3 183.8,45.1 192.0,45.0 200.1,45.1 208.2,45.3 216.4,45.6 224.5,46.0 232.6,46.4 240.8,47.0 248.9,47.5 257.0,48.2 265.2,48.8 273.3,49.6 281.4,50.3 289.5,51.1 297.7,51.9 305.8,52.7 313.9,53.5 322.1,54.4 330.2,55.3 338.3,56.1 346.5,57.0 354.6,58.0 362.7,58.9 370.9,59.8 379.0,60.8 387.1,61.8 395.3,62.7 403.4,63.7 411.5,64.7 419.6,65.7 427.8,66.7 435.9,67.7 444.0,68.7 452.2,69.7 460.3,70.7 468.4,71.7 476.6,72.8 484.7,73.8 492.8,74.8 501.0,75.9 509.1,76.9 517.2,78.0 525.4,79.0 533.5,80.1 541.6,81.1 549.7,82.2 557.9,83.2 566.0,84.3 574.1,85.3 582.3,86.4 590.4,87.5 598.5,88.5 606.7,89.6 614.8,90.7 622.9,91.7 631.1,92.8 639.2,93.9 647.3,95.0 655.5,96.0 663.6,97.1 671.7,98.2 679.8,99.3 688.0,100.4 696.1,101.4 704.2,102.5 712.4,103.6 720.5,104.7 728.6,105.8 736.8,106.9 744.9,108.0 753.0,109.0 761.2,110.1 769.3,111.2 777.4,112.3 785.6,113.4 793.7,114.5 801.8,115.6 809.9,116.7 818.1,117.8 826.2,118.9 834.3,120.0 842.5,121.1 850.6,122.1 858.7,123.2 866.9,124.3 875.0,125.4"/>
<text x="8" y="50" font-family="Arial" font-size="11" fill="#475569">18,637</text><text x="8" y="310" font-family="Arial" font-size="11" fill="#475569">4,477</text>
<text x="70" y="342" font-family="Arial" font-size="11" fill="#475569">1</text><text x="780" y="342" font-family="Arial" font-size="11" fill="#475569">100</text></svg>