<svg xmlns="http://www.w3.org/2000/svg" width="900" height="360" viewBox="0 0 900 360">
<rect width="100%" height="100%" fill="white"/><text x="70" y="25" font-family="Arial" font-size="18" font-weight="bold" fill="#0f172a">₹10 lakh shadow-candidate equity</text>
<line x1="70" y1="45" x2="70" y2="310" stroke="#64748b"/><line x1="70" y1="310" x2="875" y2="310" stroke="#64748b"/>
<polyline fill="none" stroke="#2563eb" stroke-width="2.5" points="70.0,292.0 70.6,292.0 71.2,292.0 71.8,292.0 72.4,292.0 73.0,292.0 73.6,292.0 74.2,292.0 74.8,292.0 75.4,292.0 76.0,292.0 76.6,292.0 77.2,292.0 77.8,292.0 78.4,292.0 79.0,292.0 79.6,310.0 80.2,310.0 80.8,310.0 81.4,310.0 82.0,310.0 82.6,310.0 83.2,310.0 83.8,310.0 84.4,310.0 85.0,310.0 85.6,310.0 86.2,310.0 86.8,310.0 87.4,310.0 88.0,310.0 88.6,310.0 89.2,310.0 89.8,310.0 90.4,310.0 91.0,310.0 91.6,310.0 92.2,310.0 92.8,310.0 93.4,310.0 94.0,310.0 94.6,294.4 95.3,294.4 95.9,294.4 96.5,294.4 97.1,294.4 97.7,294.0 98.3,294.0 98.9,294.0 99.5,294.0 100.1,294.0 100.7,294.0 101.3,294.0 101.9,294.0 102.5,294.0 103.1,294.0 103.7,288.4 104.3,288.4 104.9,288.4 105.5,288.4 106.1,288.4 106.7,288.4 107.3,288.4 107.9,288.4 108.5,288.4 109.1,288.4 109.7,276.4 110.3,276.4 110.9,276.4 111.5,276.4 112.1,276.4 112.7,276.4 113.3,276.4 113.9,276.4 114.5,276.4 115.1,276.4 115.7,276.4 116.3,276.4 116.9,276.4 117.5,276.4 118.1,276.4 118.7,278.5 119.3,278.5 119.9,278.5 120.5,278.5 121.1,278.5 121.7,278.5 122.3,278.5 122.9,278.5 123.5,278.5 124.1,278.5 124.7,278.5 125.3,278.5 125.9,278.5 126.5,278.5 127.1,278.5 127.7,278.5 128.3,278.5 128.9,278.5 129.5,278.5 130.1,278.5 130.7,267.4 131.3,267.4 131.9,267.4 132.5,267.4 133.1,267.4 133.7,267.4 134.3,267.4 134.9,267.4 135.5,267.4 136.1,267.4 136.7,274.9 137.3,274.9 137.9,274.9 138.5,274.9 139.1,274.9 139.7,267.2 140.3,267.2 140.9,267.2 141.5,267.2 142.1,267.2 142.7,267.2 143.3,267.2 143.9,267.2 144.5,267.2 145.1,252.7 145.8,252.7 146.4,252.7 147.0,252.7 147.6,252.7 148.2,252.7 148.8,252.7 149.4,252.7 150.0,252.7 150.6,252.7 151.2,252.7 151.8,249.4 152.4,249.4 153.0,249.4 153.6,249.4 154.2,249.4 154.8,249.4 155.4,249.4 156.0,249.4 156.6,249.4 157.2,249.4 157.8,249.4 158.4,249.4 159.0,249.4 159.6,249.4 160.2,249.4 160.8,249.4 161.4,249.4 162.0,249.4 162.6,249.4 163.2,249.4 163.8,249.4 164.4,249.4 165.0,249.4 165.6,249.4 166.2,249.4 166.8,262.2 167.4,262.2 168.0,262.2 168.6,262.2 169.2,262.2 169.8,256.5 170.4,256.5 171.0,256.5 171.6,256.5 172.2,256.5 172.8,256.5 173.4,256.5 174.0,256.5 174.6,256.5 175.2,256.5 175.8,247.2 176.4,247.2 177.0,247.2 177.6,247.2 178.2,247.2 178.8,247.2 179.4,247.2 180.0,247.2 180.6,247.2 181.2,247.2 181.8,247.2 182.4,247.2 183.0,247.2 183.6,247.2 184.2,247.2 184.8,247.2 185.4,247.2 186.0,247.2 186.6,247.2 187.2,247.2 187.8,239.6 188.4,239.6 189.0,239.6 189.6,239.6 190.2,239.6 190.8,239.6 191.4,239.6 192.0,239.6 192.6,239.6 193.2,239.6 193.8,239.6 194.4,239.6 195.0,239.6 195.6,239.6 196.3,239.6 196.9,239.6 197.5,239.6 198.1,239.6 198.7,239.6 199.3,239.6 199.9,239.6 200.5,239.6 201.1,239.6 201.7,239.6 202.3,239.6 202.9,239.6 203.5,239.6 204.1,239.6 204.7,239.6 205.3,239.6 205.9,239.6 206.5,239.6 207.1,239.6 207.7,239.6 208.3,239.6 208.9,239.6 209.5,239.6 210.1,239.6 210.7,239.6 211.3,239.6 211.9,239.6 212.5,239.6 213.1,239.6 213.7,239.6 214.3,244.9 214.9,244.9 215.5,244.9 216.1,244.9 216.7,244.9 217.3,244.9 217.9,244.9 218.5,244.9 219.1,244.9 219.7,244.9 220.3,244.9 220.9,252.2 221.5,252.2 222.1,252.2 222.7,252.2 223.3,252.2 223.9,252.2 224.5,252.2 225.1,252.2 225.7,252.2 226.3,252.2 226.9,252.2 227.5,252.2 228.1,252.2 228.7,252.2 229.3,252.2 229.9,252.2 230.5,252.2 231.1,252.2 231.7,252.2 232.3,252.2 232.9,230.6 233.5,230.6 234.1,233.6 234.7,233.6 235.3,233.6 235.9,233.6 236.5,233.6 237.1,233.6 237.7,233.6 238.3,233.6 238.9,233.6 239.5,233.6 240.1,233.6 240.7,233.6 241.3,233.6 241.9,241.2 242.5,241.2 243.1,241.2 243.7,241.2 244.3,241.2 244.9,241.2 245.5,241.2 246.2,241.2 246.8,241.2 247.4,241.2 248.0,241.2 248.6,241.2 249.2,241.2 249.8,241.2 250.4,241.2 251.0,241.2 251.6,241.2 252.2,241.2 252.8,241.2 253.4,241.2 254.0,241.2 254.6,241.2 255.2,241.2 255.8,241.2 256.4,241.2 257.0,241.2 257.6,241.2 258.2,241.2 258.8,241.2 259.4,241.2 260.0,236.7 260.6,236.7 261.2,236.7 261.8,236.7 262.4,236.7 263.0,236.7 263.6,236.7 264.2,236.7 264.8,236.7 265.4,239.5 266.0,239.5 266.6,239.5 267.2,239.5 267.8,239.5 268.4,239.5 269.0,239.5 269.6,239.5 270.2,239.5 270.8,239.5 271.4,239.5 272.0,239.5 272.6,239.5 273.2,239.5 273.8,239.5 274.4,239.5 275.0,239.5 275.6,239.5 276.2,239.5 276.8,239.5 277.4,239.5 278.0,239.5 278.6,239.5 279.2,239.5 279.8,239.5 280.4,239.5 281.0,239.5 281.6,239.5 282.2,239.5 282.8,239.5 283.4,239.5 284.0,239.5 284.6,239.5 285.2,239.5 285.8,239.5 286.4,239.5 287.0,239.5 287.6,239.5 288.2,239.5 288.8,239.5 289.4,239.5 290.0,238.8 290.6,238.8 291.2,238.8 291.8,238.8 292.4,238.8 293.0,238.8 293.6,238.8 294.2,238.8 294.8,238.8 295.4,238.8 296.0,238.8 296.7,238.8 297.3,238.8 297.9,238.8 298.5,238.8 299.1,238.8 299.7,238.8 300.3,238.8 300.9,238.8 301.5,241.0 302.1,231.5 302.7,231.5 303.3,231.5 303.9,231.5 304.5,231.5 305.1,221.0 305.7,221.0 306.3,221.0 306.9,221.0 307.5,221.0 308.1,211.1 308.7,211.1 309.3,211.1 309.9,211.1 310.5,211.1 311.1,211.1 311.7,211.1 312.3,211.1 312.9,211.1 313.5,211.1 314.1,211.1 314.7,211.1 315.3,211.1 315.9,211.1 316.5,211.1 317.1,207.4 317.7,207.4 318.3,207.4 318.9,207.4 319.5,207.4 320.1,200.0 320.7,200.0 321.3,200.0 321.9,200.0 322.5,200.0 323.1,192.8 323.7,192.8 324.3,192.8 324.9,192.8 325.5,192.8 326.1,192.8 326.7,192.8 327.3,192.8 327.9,192.8 328.5,192.8 329.1,192.8 329.7,192.8 330.3,192.8 330.9,192.8 331.5,192.8 332.1,192.8 332.7,192.8 333.3,192.8 333.9,192.8 334.5,192.8 335.1,187.9 335.7,187.9 336.3,187.9 336.9,187.9 337.5,187.9 338.1,187.9 338.7,187.9 339.3,187.9 339.9,187.9 340.5,187.9 341.1,187.9 341.7,187.9 342.3,187.9 342.9,187.9 343.5,187.9 344.1,187.9 344.7,187.9 345.3,187.9 345.9,187.9 346.5,187.9 347.2,187.9 347.8,187.9 348.4,187.9 349.0,187.9 349.6,187.9 350.2,187.9 350.8,187.9 351.4,187.9 352.0,187.9 352.6,187.9 353.2,187.9 353.8,187.9 354.4,187.9 355.0,187.9 355.6,187.9 356.2,187.9 356.8,187.9 357.4,187.9 358.0,187.9 358.6,187.9 359.2,187.9 359.8,187.9 360.4,187.9 361.0,187.9 361.6,187.9 362.2,187.9 362.8,187.9 363.4,187.9 364.0,187.9 364.6,187.9 365.2,187.9 365.8,187.9 366.4,187.9 367.0,187.9 367.6,187.9 368.2,187.9 368.8,187.9 369.4,187.9 370.0,187.9 370.6,187.9 371.2,187.9 371.8,187.9 372.4,187.9 373.0,187.9 373.6,187.9 374.2,178.3 374.8,178.3 375.4,178.3 376.0,178.3 376.6,178.3 377.2,178.3 377.8,178.3 378.4,178.3 379.0,178.3 379.6,178.3 380.2,178.3 380.8,178.3 381.4,178.3 382.0,178.3 382.6,178.3 383.2,172.1 383.8,172.1 384.4,172.1 385.0,172.1 385.6,172.1 386.2,172.1 386.8,172.1 387.4,172.1 388.0,172.1 388.6,172.1 389.2,190.9 389.8,190.9 390.4,190.9 391.0,190.9 391.6,190.9 392.2,187.2 392.8,187.2 393.4,187.2 394.0,187.2 394.6,187.2 395.2,180.7 395.8,180.7 396.4,180.7 397.1,180.7 397.7,180.7 398.3,174.3 398.9,174.3 399.5,174.3 400.1,174.3 400.7,174.3 401.3,167.8 401.9,167.8 402.5,167.8 403.1,167.8 403.7,167.8 404.3,167.8 404.9,167.8 405.5,167.8 406.1,167.8 406.7,167.8 407.3,167.8 407.9,167.8 408.5,167.8 409.1,167.8 409.7,167.8 410.3,166.3 410.9,166.3 411.5,166.3 412.1,166.3 412.7,166.3 413.3,166.3 413.9,166.3 414.5,166.3 415.1,166.3 415.7,166.3 416.3,165.2 416.9,165.2 417.5,165.2 418.1,165.2 418.7,165.2 419.3,165.2 419.9,165.2 420.5,165.2 421.1,165.2 421.7,165.2 422.3,162.4 422.9,162.4 423.5,162.4 424.1,162.4 424.7,162.4 425.3,162.4 425.9,162.4 426.5,162.4 427.1,162.4 427.7,162.4 428.3,162.4 428.9,162.4 429.5,162.4 430.1,162.4 430.7,162.4 431.3,162.4 431.9,162.4 432.5,162.4 433.1,162.4 433.7,162.4 434.3,162.4 434.9,162.4 435.5,162.4 436.1,162.4 436.7,162.4 437.3,162.4 437.9,162.4 438.5,162.4 439.1,162.4 439.7,162.4 440.3,162.4 440.9,162.4 441.5,162.4 442.1,162.4 442.7,162.4 443.3,162.4 443.9,162.4 444.5,162.4 445.1,162.4 445.7,162.4 446.3,162.4 446.9,162.4 447.6,162.4 448.2,162.4 448.8,162.4 449.4,162.4 450.0,162.4 450.6,162.4 451.2,162.4 451.8,162.4 452.4,162.4 453.0,162.4 453.6,162.4 454.2,162.4 454.8,162.4 455.4,162.4 456.0,162.4 456.6,162.4 457.2,162.4 457.8,162.4 458.4,162.4 459.0,162.4 459.6,162.4 460.2,162.4 460.8,162.4 461.4,162.4 462.0,162.4 462.6,162.4 463.2,162.4 463.8,162.4 464.4,162.4 465.0,162.4 465.6,162.4 466.2,162.4 466.8,162.4 467.4,162.4 468.0,162.4 468.6,162.4 469.2,162.4 469.8,162.4 470.4,162.4 471.0,162.4 471.6,162.4 472.2,162.4 472.8,162.4 473.4,162.4 474.0,162.4 474.6,162.4 475.2,162.4 475.8,162.4 476.4,162.4 477.0,162.4 477.6,162.4 478.2,162.4 478.8,162.4 479.4,150.5 480.0,150.5 480.6,150.5 481.2,150.5 481.8,150.5 482.4,137.2 483.0,137.2 483.6,137.2 484.2,137.2 484.8,137.2 485.4,137.2 486.0,137.2 486.6,137.2 487.2,137.2 487.8,137.2 488.4,142.1 489.0,142.1 489.6,142.1 490.2,142.1 490.8,142.1 491.4,142.1 492.0,142.1 492.6,142.1 493.2,142.1 493.8,142.1 494.4,142.1 495.0,142.1 495.6,142.1 496.2,142.1 496.8,142.1 497.4,142.1 498.1,142.1 498.7,142.1 499.3,142.1 499.9,142.1 500.5,142.1 501.1,142.1 501.7,142.1 502.3,142.1 502.9,142.1 503.5,136.7 504.1,136.7 504.7,136.7 505.3,136.7 505.9,136.7 506.5,136.7 507.1,136.7 507.7,136.7 508.3,136.7 508.9,136.7 509.5,136.7 510.1,136.7 510.7,136.7 511.3,136.7 511.9,136.7 512.5,119.6 513.1,119.6 513.7,119.6 514.3,119.6 514.9,119.6 515.5,119.6 516.1,119.6 516.7,119.6 517.3,119.6 517.9,119.6 518.5,119.6 519.1,119.6 519.7,119.6 520.3,119.6 520.9,119.6 521.5,119.6 522.1,119.6 522.7,119.6 523.3,119.6 523.9,119.6 524.5,119.6 525.1,119.6 525.7,119.6 526.3,119.6 526.9,105.0 527.5,105.0 528.1,105.0 528.7,105.0 529.3,105.0 529.9,105.0 530.5,105.0 531.1,105.0 531.7,105.0 532.3,105.0 532.9,105.0 533.5,105.0 534.1,105.0 534.7,105.0 535.3,105.0 535.9,105.0 536.5,105.0 537.1,105.0 537.7,105.0 538.3,105.0 538.9,105.0 539.5,105.0 540.1,105.0 540.7,105.0 541.3,105.0 541.9,105.0 542.5,114.7 543.1,114.7 543.7,114.7 544.3,114.7 544.9,114.7 545.5,114.7 546.1,114.7 546.7,114.7 547.3,114.7 547.9,114.7 548.6,114.7 549.2,114.7 549.8,114.7 550.4,114.7 551.0,114.7 551.6,114.7 552.2,114.7 552.8,118.5 553.4,118.5 554.0,118.5 554.6,118.5 555.2,118.5 555.8,118.5 556.4,118.5 557.0,118.5 557.6,106.5 558.2,106.5 558.8,106.5 559.4,106.5 560.0,106.5 560.6,106.5 561.2,106.5 561.8,106.5 562.4,106.5 563.0,106.5 563.6,106.5 564.2,106.5 564.8,106.5 565.4,106.5 566.0,106.5 566.6,106.5 567.2,106.5 567.8,106.5 568.4,106.5 569.0,106.5 569.6,106.5 570.2,106.5 570.8,106.5 571.4,106.5 572.0,106.5 572.6,106.5 573.2,106.5 573.8,106.5 574.4,106.5 575.0,106.5 575.6,97.3 576.2,97.3 576.8,97.3 577.4,97.3 578.0,97.3 578.6,97.3 579.2,97.3 579.8,97.3 580.4,97.3 581.0,97.3 581.6,97.3 582.2,97.3 582.8,97.3 583.4,97.3 584.0,97.3 584.6,97.3 585.2,97.3 585.8,97.3 586.4,97.3 587.0,97.3 587.6,97.3 588.2,97.3 588.8,97.3 589.4,97.3 590.0,97.3 590.6,97.3 591.2,97.3 591.8,97.3 592.4,97.3 593.0,97.3 593.6,97.3 594.2,97.3 594.8,97.3 595.4,97.3 596.0,97.3 596.6,97.3 597.2,97.3 597.8,97.3 598.5,97.3 599.1,97.3 599.7,97.3 600.3,97.3 600.9,97.3 601.5,97.3 602.1,97.3 602.7,97.3 603.3,97.3 603.9,97.3 604.5,97.3 605.1,97.3 605.7,97.3 606.3,97.3 606.9,97.3 607.5,97.3 608.1,97.3 608.7,97.3 609.3,97.3 609.9,97.3 610.5,97.3 611.1,97.3 611.7,97.3 612.3,97.3 612.9,97.3 613.5,97.3 614.1,97.3 614.7,97.3 615.3,97.3 615.9,97.3 616.5,99.5 617.1,99.5 617.7,99.5 618.3,99.5 618.9,99.5 619.5,99.5 620.1,99.5 620.7,99.5 621.3,99.5 621.9,99.5 622.5,99.5 623.1,99.5 623.7,99.5 624.3,99.5 624.9,99.5 625.5,99.5 626.1,99.5 626.7,99.5 627.3,99.5 627.9,99.5 628.5,99.5 629.1,99.5 629.7,99.5 630.3,99.5 630.9,101.0 631.5,101.0 632.1,101.0 632.7,101.6 633.3,101.6 633.9,101.6 634.5,101.6 635.1,101.6 635.7,101.6 636.3,101.6 636.9,101.6 637.5,101.6 638.1,101.6 638.7,101.6 639.3,101.6 639.9,101.6 640.5,101.6 641.1,104.3 641.7,104.3 642.3,104.3 642.9,104.3 643.5,104.3 644.1,104.3 644.7,104.3 645.3,104.3 645.9,104.3 646.5,104.3 647.1,104.3 647.7,104.3 648.3,104.3 649.0,104.3 649.6,104.3 650.2,104.3 650.8,104.3 651.4,104.3 652.0,104.3 652.6,104.3 653.2,104.3 653.8,104.3 654.4,104.3 655.0,104.3 655.6,104.3 656.2,104.3 656.8,104.3 657.4,104.3 658.0,104.3 658.6,104.3 659.2,104.3 659.8,114.3 660.4,114.3 661.0,114.3 661.6,114.3 662.2,114.3 662.8,106.3 663.4,106.3 664.0,106.3 664.6,106.3 665.2,106.3 665.8,106.3 666.4,106.3 667.0,106.3 667.6,106.3 668.2,106.3 668.8,99.0 669.4,99.0 670.0,99.0 670.6,99.0 671.2,99.0 671.8,99.0 672.4,99.0 673.0,99.0 673.6,99.0 674.2,99.0 674.8,99.0 675.4,99.0 676.0,99.0 676.6,99.0 677.2,99.0 677.8,99.0 678.4,99.0 679.0,99.0 679.6,99.0 680.2,99.0 680.8,99.0 681.4,99.0 682.0,99.0 682.6,99.0 683.2,99.0 683.8,99.0 684.4,99.0 685.0,99.0 685.6,99.0 686.2,99.0 686.8,99.0 687.4,99.0 688.0,99.0 688.6,99.0 689.2,99.0 689.8,99.0 690.4,99.0 691.0,99.0 691.6,99.0 692.2,99.0 692.8,99.0 693.4,99.0 694.0,99.0 694.6,99.0 695.2,99.0 695.8,69.7 696.4,69.7 697.0,74.3 697.6,74.3 698.2,74.3 698.8,74.3 699.5,74.3 700.1,75.9 700.7,75.9 701.3,75.9 701.9,70.3 702.5,70.3 703.1,70.3 703.7,70.3 704.3,70.3 704.9,70.3 705.5,70.3 706.1,70.3 706.7,70.3 707.3,70.3 707.9,70.0 708.5,70.0 709.1,70.0 709.7,70.0 710.3,70.0 710.9,69.1 711.5,69.1 712.1,69.1 712.7,69.1 713.3,69.1 713.9,69.1 714.5,69.1 715.1,69.1 715.7,69.1 716.3,69.1 716.9,69.1 717.5,69.1 718.1,69.1 718.7,69.1 719.3,69.1 719.9,68.4 720.5,68.4 721.1,68.4 721.7,68.4 722.3,68.4 722.9,76.6 723.5,76.6 724.1,76.6 724.7,76.6 725.3,76.6 725.9,76.6 726.5,76.6 727.1,76.6 727.7,76.6 728.3,76.6 728.9,76.6 729.5,76.6 730.1,76.6 730.7,76.6 731.3,76.6 731.9,77.3 732.5,77.3 733.1,77.3 733.7,77.3 734.3,77.3 734.9,71.9 735.5,71.9 736.1,71.9 736.7,71.9 737.3,71.9 737.9,71.9 738.5,71.9 739.1,71.9 739.7,71.9 740.3,71.9 740.9,71.9 741.5,71.9 742.1,71.9 742.7,71.9 743.3,71.9 743.9,78.1 744.5,78.1 745.1,78.1 745.7,56.6 746.3,56.6 746.9,56.6 747.5,56.6 748.1,56.6 748.7,51.8 749.4,51.8 750.0,51.8 750.6,51.8 751.2,51.8 751.8,64.4 752.4,64.4 753.0,64.4 753.6,64.4 754.2,64.4 754.8,63.0 755.4,63.0 756.0,63.0 756.6,63.0 757.2,63.0 757.8,63.0 758.4,63.0 759.0,63.0 759.6,63.0 760.2,63.0 760.8,63.0 761.4,63.0 762.0,63.0 762.6,63.0 763.2,63.0 763.8,63.0 764.4,63.0 765.0,63.0 765.6,63.0 766.2,63.0 766.8,63.0 767.4,63.0 768.0,63.0 768.6,63.0 769.2,63.0 769.8,63.0 770.4,63.0 771.0,63.0 771.6,63.0 772.2,63.0 772.8,63.0 773.4,63.0 774.0,63.0 774.6,63.0 775.2,63.0 775.8,63.0 776.4,63.0 777.0,63.0 777.6,63.0 778.2,63.0 778.8,63.0 779.4,63.0 780.0,63.0 780.6,63.0 781.2,63.0 781.8,58.1 782.4,58.1 783.0,58.1 783.6,58.1 784.2,58.1 784.8,54.1 785.4,54.1 786.0,54.1 786.6,54.1 787.2,54.1 787.8,58.8 788.4,58.8 789.0,58.8 789.6,58.8 790.2,58.8 790.8,58.8 791.4,58.8 792.0,58.8 792.6,58.8 793.2,58.8 793.8,58.8 794.4,58.8 795.0,58.8 795.6,58.8 796.2,58.8 796.8,58.8 797.4,58.8 798.0,58.8 798.6,58.8 799.2,58.8 799.9,58.8 800.5,58.8 801.1,58.8 801.7,58.8 802.3,58.8 802.9,58.8 803.5,58.8 804.1,58.8 804.7,58.8 805.3,58.8 805.9,50.9 806.5,50.9 807.1,50.9 807.7,50.9 808.3,50.9 808.9,50.9 809.5,50.9 810.1,50.9 810.7,50.9 811.3,50.9 811.9,50.9 812.5,50.9 813.1,50.9 813.7,50.9 814.3,50.9 814.9,45.0 815.5,45.0 816.1,45.0 816.7,45.0 817.3,45.0 817.9,45.0 818.5,45.0 819.1,45.0 819.7,45.0 820.3,45.0 820.9,45.0 821.5,45.0 822.1,45.0 822.7,45.0 823.3,45.0 823.9,45.0 824.5,45.0 825.1,45.0 825.7,49.3 826.3,49.3 826.9,49.3 827.5,49.3 828.1,49.3 828.7,49.3 829.3,49.3 829.9,49.3 830.5,49.3 831.1,49.3 831.7,49.3 832.3,49.3 832.9,49.3 833.5,49.3 834.1,49.3 834.7,49.3 835.3,49.3 835.9,49.3 836.5,49.3 837.1,49.3 837.7,49.3 838.3,49.3 838.9,49.3 839.5,49.3 840.1,49.3 840.7,49.3 841.3,49.3 841.9,49.3 842.5,49.3 843.1,49.3 843.7,49.3 844.3,49.3 844.9,49.3 845.5,49.3 846.1,49.3 846.7,49.3 847.3,49.5 847.9,49.5 848.5,49.5 849.1,49.5 849.7,49.5 850.4,49.5 851.0,50.5 851.6,50.5 852.2,50.5 852.8,50.5 853.4,50.5 854.0,50.5 854.6,50.5 855.2,50.5 855.8,50.5 856.4,50.5 857.0,50.5 857.6,50.5 858.2,50.5 858.8,50.5 859.4,50.5 860.0,50.5 860.6,50.5 861.2,50.5 861.8,50.5 862.4,50.5 863.0,50.5 863.6,50.5 864.2,50.5 864.8,50.5 865.4,50.5 866.0,50.5 866.6,50.5 867.2,50.5 867.8,50.5 868.4,50.5 869.0,49.1 869.6,49.1 870.2,49.1 870.8,49.1 871.4,48.9 872.0,48.9 872.6,48.9 873.2,48.9 873.8,48.9 874.4,48.9 875.0,47.3"/>
<text x="8" y="50" font-family="Arial" font-size="11" fill="#475569">1,109,967</text><text x="8" y="310" font-family="Arial" font-size="11" fill="#475569">997,498</text>
<text x="70" y="342" font-family="Arial" font-size="11" fill="#475569">2021-05-12</text><text x="780" y="342" font-family="Arial" font-size="11" fill="#475569">2026-06-30</text></svg>